# xmcd CD database file
#
# Track frame offsets:
#	150
#	18171
#	30877
#	44918
#	61744
#	76675
#	88951
#	102657
#	120552
#	137202
#	152851
#	176358
#	189384
#	202983
#
# Disc length: 2900 seconds
#
# Revision: 0
# Processed by: cddbd v1.5.2PL0 Copyright (c) Steve Scherf et al.
# Submitted via: CDex 1.70beta2
#
DISCID=b10b520e
DTITLE=Maria Cecília e Rodolfo - 2008
DYEAR=2008
DGENRE=Sertanejo
TTITLE0=Você de Volta
TTITLE1=Pode Ser Pra Valer
TTITLE2=A Fila Andou
TTITLE3=Delícia
TTITLE4=Basta Você Me Olhar
TTITLE5=Mato e Morro Por Você
TTITLE6=Coisas Esotéricas
TTITLE7=Primeiro Passo
TTITLE8=Você Me Paga
TTITLE9=Evidências
TTITLE10=Pouti-Pourri de Guarâneas
TTITLE11=Ela Não Me Quer
TTITLE12=Me Dê Uma Chance
TTITLE13=Nós Dois
EXTD=YEAR: 2008
EXTT0=
EXTT1=
EXTT2=
EXTT3=
EXTT4=
EXTT5=
EXTT6=
EXTT7=
EXTT8=
EXTT9=
EXTT10=
EXTT11=
EXTT12=
EXTT13=
PLAYORDER=
